#!OML:ASF I:\Actors\actors\Patient Classification 2\Patient 1\Session 1\actor1.ASF
:FULLY-SPECIFIED
:DEGREES
525
root -0.661691 18.1538 5.59435 1.58476 -2.76706 -2.91522
lowerback 3.63121 1.15251 0.95225
upperback -2.24824 1.60725 0.374059
thorax -4.33984 0.776202 -0.265426
lowerneck -11.763 -2.96093 -1.25294
upperneck 19.9856 -4.65344 3.7076
head 8.257 -1.93493 0.950859
rclavicle 9.55409e-015 -2.5842e-015
rhumerus -52.3235 -8.58113 -84.1339
rradius 46.4876
rwrist 7.32213
rhand -3.01789 -41.8498
rfingers 7.12502
rthumb 22.6968 -70.535
lclavicle 9.55409e-015 -2.5842e-015
lhumerus -42.2336 -0.722176 89.9064
lradius 41.3493
lwrist 1.05785
lhand -7.56247 -23.7466
lfingers 7.12502
lthumb 18.3298 5.40977
rfemur 10.1051 5.46719 17.4391
rtibia -8.07354
rfoot -13.7015 -14.2542
rtoes 3.11346
lfemur 13.7457 -8.46063 -11.9006
ltibia -11.6627
lfoot -7.48599 19.1999
ltoes -12.3725
526
root -0.661957 18.1541 5.59827 1.62764 -2.74684 -2.89889
lowerback 3.51139 1.12572 0.956856
upperback -2.26317 1.57091 0.391081
thorax -4.28809 0.758593 -0.245325
lowerneck -11.716 -2.9496 -1.27647
upperneck 19.987 -4.62413 3.66605
head 8.24749 -1.92764 0.944776
rclavicle -1.95492e-014 -4.77083e-015
rhumerus -52.2715 -8.50825 -84.0836
rradius 46.5167
rwrist 7.35189
rhand -3.00316 -41.9003
rfingers 7.12502
rthumb 22.7109 -70.5837
lclavicle -1.95492e-014 -4.77083e-015
lhumerus -42.1256 -0.422599 89.7796
lradius 40.8375
lwrist 0.531576
lhand -7.51663 -23.7808
lfingers 7.12502
lthumb 18.3739 5.37145
rfemur 10.0734 5.44495 17.4173
rtibia -8.07136
rfoot -13.6852 -14.2562
rtoes 3.02132
lfemur 13.6991 -8.48449 -11.9122
ltibia -11.6501
lfoot -7.53746 19.199
ltoes -12.2025
527
root -0.662909 18.1539 5.60197 1.63444 -2.73005 -2.89722
lowerback 3.4374 1.11609 0.979645
upperback -2.27506 1.55832 0.390245
thorax -4.25798 0.751827 -0.256557
lowerneck -11.7018 -2.95651 -1.2768
upperneck 20.0463 -4.63566 3.66236
head 8.26504 -1.93284 0.942464
rclavicle -9.75908e-015 -5.76476e-015
rhumerus -52.2459 -8.46792 -84.0477
rradius 46.5416
rwrist 7.33878
rhand -2.90866 -42.053
rfingers 7.12502
rthumb 22.8016 -70.7253
lclavicle -9.75908e-015 -5.76476e-015
lhumerus -42.0911 -0.242954 89.6553
lradius 40.4369
lwrist 0.094899
lhand -7.46679 -23.6865
lfingers 7.12502
lthumb 18.4218 5.46123
rfemur 10.0852 5.4275 17.417
rtibia -8.0799
rfoot -13.709 -14.2436
rtoes 3.16839
lfemur 13.6984 -8.52257 -11.9155
ltibia -11.6436
lfoot -7.55869 19.2207
ltoes -12.3407
528
root -0.66436 18.1529 5.60587 1.61562 -2.68986 -2.90896
lowerback 3.3728 1.09671 1.00956
upperback -2.26889 1.53296 0.38866
thorax -4.21439 0.738619 -0.271676
lowerneck -11.6905 -2.96143 -1.32796
upperneck 20.1166 -4.6609 3.77967
head 8.29156 -1.93612 0.987341
rclavicle -9.31803e-016 -4.96962e-015
rhumerus -52.1823 -8.42596 -84.0345
rradius 46.5088
rwrist 7.34443
rhand -2.90208 -42.1988
rfingers 7.12502
rthumb 22.8079 -70.8703
lclavicle -9.31803e-016 -4.96962e-015
lhumerus -42.0468 -0.0505041 89.5088
lradius 40.0238
lwrist -0.327191
lhand -7.38771 -23.6231
lfingers 7.12502
lthumb 18.4979 5.51736
rfemur 10.121 5.38724 17.4384
rtibia -8.06791
rfoot -13.7618 -14.2293
rtoes 3.17646
lfemur 13.7327 -8.57895 -11.9075
ltibia -11.6565
lfoot -7.53357 19.2502
ltoes -12.4919
529
root -0.665539 18.1522 5.6102 1.61238 -2.63597 -2.91569
lowerback 3.27942 1.06769 1.0512
upperback -2.25961 1.49481 0.386813
thorax -4.15112 0.718859 -0.292155
lowerneck -11.6361 -2.96283 -1.41922
upperneck 20.1429 -4.67649 3.92112
head 8.29679 -1.93675 1.04869
rclavicle 1.81453e-014 1.43125e-014
rhumerus -52.0809 -8.40054 -84.0243
rradius 46.429
rwrist 7.38015
rhand -2.98799 -42.3093
rfingers 7.12502
rthumb 22.7255 -70.991
lclavicle 1.81453e-014 1.43125e-014
lhumerus -41.9706 0.236089 89.3227
lradius 39.5362
lwrist -0.832489
lhand -7.31716 -23.6395
lfingers 7.12502
lthumb 18.5658 5.49452
rfemur 10.1309 5.33323 17.45
rtibia -8.02638
rfoot -13.7985 -14.2023
rtoes 3.15493
lfemur 13.7522 -8.59606 -11.898
ltibia -11.6929
lfoot -7.4732 19.2397
ltoes -12.7633
530
root -0.667033 18.1521 5.61378 1.59866 -2.59324 -2.9085
lowerback 3.20607 1.04464 1.06617
upperback -2.2494 1.46371 0.390776
thorax -4.09905 0.703401 -0.292704
lowerneck -11.6056 -2.96069 -1.49079
upperneck 20.1914 -4.67746 3.99503
head 8.31111 -1.93501 1.08552
rclavicle -1.20824e-014 0
rhumerus -51.9647 -8.36244 -84.015
rradius 46.3276
rwrist 7.37964
rhand -3.09377 -42.3515
rfingers 7.12502
rthumb 22.624 -71.0456
lclavicle -1.20824e-014 0
lhumerus -41.9232 0.51646 89.1552
lradius 39.0884
lwrist -1.37138
lhand -7.26164 -23.6353
lfingers 7.12502
lthumb 18.6192 5.49364
rfemur 10.153 5.29089 17.4456
rtibia -7.99892
rfoot -13.823 -14.1532
rtoes 3.28099
lfemur 13.773 -8.56503 -11.8973
ltibia -11.7239
lfoot -7.38041 19.1946
ltoes -13.0903
531
root -0.668843 18.1524 5.61668 1.59156 -2.55936 -2.92026
lowerback 3.15021 1.03447 1.07977
upperback -2.248 1.45046 0.404254
thorax -4.06611 0.696851 -0.284387
lowerneck -11.644 -2.95655 -1.47671
upperneck 20.2899 -4.67063 3.95633
head 8.3497 -1.93251 1.07041
rclavicle -4.81432e-015 -6.16232e-015
rhumerus -51.8757 -8.34951 -83.9867
rradius 46.2325
rwrist 7.3779
rhand -3.15378 -42.2535
rfingers 7.12502
rthumb 22.5664 -70.9546
lclavicle -4.81432e-015 -6.16232e-015
lhumerus -41.9062 0.753243 89.0161
lradius 38.6954
lwrist -1.88452
lhand -7.07962 -23.6218
lfingers 7.12502
lthumb 18.7942 5.49021
rfemur 10.1757 5.25744 17.4605
rtibia -7.99308
rfoot -13.8493 -14.1177
rtoes 3.40353
lfemur 13.7838 -8.52732 -11.8711
ltibia -11.7371
lfoot -7.33346 19.137
ltoes -13.1164
532
root -0.669832 18.1522 5.61962 1.5919 -2.50907 -2.91552
lowerback 3.09065 1.02548 1.10773
upperback -2.25036 1.43861 0.395782
thorax -4.03406 0.690253 -0.306793
lowerneck -11.6627 -2.94909 -1.36215
upperneck 20.3468 -4.65715 3.82333
head 8.36578 -1.92954 1.00812
rclavicle 6.88913e-015 1.98785e-016
rhumerus -51.8371 -8.43546 -83.9324
rradius 46.1626
rwrist 7.50117
rhand -3.11001 -41.9956
rfingers 7.12502
rthumb 22.6084 -70.6916
lclavicle 6.88913e-015 1.98785e-016
lhumerus -41.8719 0.940505 88.8776
lradius 38.2877
lwrist -2.31897
lhand -6.81804 -23.5933
lfingers 7.12502
lthumb 19.0458 5.49424
rfemur 10.1819 5.20742 17.4554
rtibia -7.96494
rfoot -13.8772 -14.1011
rtoes 3.47969
lfemur 13.7873 -8.49862 -11.8658
ltibia -11.7519
lfoot -7.31382 19.0635
ltoes -13.2725
533
root -0.669888 18.1516 5.62184 1.60003 -2.46032 -2.89301
lowerback 3.02773 1.01319 1.14335
upperback -2.25881 1.42225 0.374419
thorax -4.00599 0.680964 -0.346496
lowerneck -11.6203 -2.94223 -1.30932
upperneck 20.3532 -4.64945 3.78053
head 8.35759 -1.92666 0.986486
rclavicle 9.77151e-015 7.55382e-015
rhumerus -51.8423 -8.50863 -83.8914
rradius 46.127
rwrist 7.62889
rhand -3.01328 -41.8584
rfingers 7.12502
rthumb 22.7012 -70.543
lclavicle 9.77151e-015 7.55382e-015
lhumerus -41.828 1.11418 88.7508
lradius 37.8602
lwrist -2.68929
lhand -6.69589 -23.4493
lfingers 7.12502
lthumb 19.1633 5.62655
rfemur 10.1723 5.15965 17.4238
rtibia -7.93796
rfoot -13.8929 -14.0812
rtoes 3.51838
lfemur 13.7771 -8.48323 -11.8839
ltibia -11.7597
lfoot -7.28124 19.0128
ltoes -13.4574
